*
*
G04 PADS 9.5 Build Number: 522968 generated Gerber (RS-274-X) file*
G04 PC Version=2.1*
*
%IN "default2.pcb"*%
*
%MOIN*%
*
%FSLAX35Y35*%
*
*
*
*
G04 PC Standard Apertures*
*
*
G04 Thermal Relief Aperture macro.*
%AMTER*
1,1,$1,0,0*
1,0,$1-$2,0,0*
21,0,$3,$4,0,0,45*
21,0,$3,$4,0,0,135*
%
*
*
G04 Annular Aperture macro.*
%AMANN*
1,1,$1,0,0*
1,0,$2,0,0*
%
*
*
G04 Odd Aperture macro.*
%AMODD*
1,1,$1,0,0*
1,0,$1-0.005,0,0*
%
*
*
G04 PC Custom Aperture Macros*
*
*
*
*
*
*
G04 PC Aperture Table*
*
%ADD010C,0.001*%
%ADD011C,0.06*%
%ADD012C,0.07874*%
%ADD014C,0.1*%
%ADD015C,0.04*%
%ADD016C,0.11811*%
%ADD017R,0.06X0.06*%
%ADD018C,0.1378*%
%ADD019C,0.09843*%
%ADD020C,0.12*%
%ADD021C,0.016*%
%ADD023C,0.055*%
%ADD024C,0.01*%
*
*
*
*
G04 PC Circuitry*
G04 Layer Name default2.pcb - circuitry*
%LPD*%
*
*
G04 PC Custom Flashes*
G04 Layer Name default2.pcb - flashes*
%LPD*%
*
*
G04 PC Circuitry*
G04 Layer Name default2.pcb - circuitry*
%LPD*%
*
G54D10*
G54D11*
G01X401370Y302370D03*
X411370Y312370D03*
X421370Y302370D03*
X487370D03*
X497370Y312370D03*
X507370Y302370D03*
X227370D03*
X237370Y312370D03*
X247370Y302370D03*
X312370D03*
X322370Y312370D03*
X332370Y302370D03*
X489370Y364370D03*
X509370D03*
X526370D03*
X546370D03*
X363370D03*
X383370D03*
X324370D03*
X344370D03*
X581370Y301370D03*
X571370Y291370D03*
X581370D03*
X571370Y281370D03*
X581370D03*
X571370Y271370D03*
X581370D03*
X262370Y259370D03*
X252370D03*
X242370D03*
Y229370D03*
X252370D03*
X262370D03*
X272370D03*
X344370Y259370D03*
X334370D03*
X324370D03*
Y229370D03*
X334370D03*
X344370D03*
X354370D03*
X434370Y259370D03*
X424370D03*
X414370D03*
Y229370D03*
X424370D03*
X434370D03*
X444370D03*
X521370Y259370D03*
X511370D03*
X501370D03*
Y229370D03*
X511370D03*
X521370D03*
X531370D03*
X581370Y374370D03*
X571370Y364370D03*
X581370D03*
X571370Y354370D03*
X581370D03*
X571370Y344370D03*
X581370D03*
G54D12*
X224370Y363370D03*
Y377150D03*
Y390929D03*
G54D14*
X422370Y147370D03*
X443870D03*
X465370D03*
X509370D03*
X530870D03*
X552370D03*
X251370D03*
X272870D03*
X294370D03*
X334370D03*
X355870D03*
X377370D03*
G54D15*
X236370Y331370D03*
X246370D03*
X256370D03*
X266370D03*
X319370D03*
X329370D03*
X339370D03*
X349370D03*
X413370D03*
X423370D03*
X433370D03*
X443370D03*
X498370D03*
X508370D03*
X518370D03*
X528370D03*
G54D16*
X268370Y401882D03*
X358370D03*
X378055D03*
X429370D03*
X519370D03*
X539055D03*
G54D17*
X571370Y301370D03*
X265120Y165370D03*
X251620D03*
X279620D03*
X293120D03*
X361620Y166370D03*
X375120D03*
X348120D03*
X334620D03*
X449620D03*
X463120D03*
X436120D03*
X422620D03*
X535620D03*
X549120D03*
X523120D03*
X509620D03*
X272370Y259370D03*
X354370D03*
X444370D03*
X531370D03*
X571370Y374370D03*
G54D18*
X221370Y52370D03*
X443870Y217370D03*
X530870D03*
X354870D03*
X272370D03*
X584370Y52370D03*
X582370Y415370D03*
X223370D03*
G54D19*
X414370Y61370D03*
Y101528D03*
X562008Y61370D03*
Y101528D03*
X243370Y61370D03*
Y101528D03*
X391008Y61370D03*
Y101528D03*
G54D20*
X222370Y177370D03*
Y157370D03*
X580370Y178370D03*
Y158370D03*
X314370Y143370D03*
Y163370D03*
X585370Y112370D03*
Y132370D03*
X487370Y142370D03*
Y162370D03*
G54D21*
X294120Y151620D02*
G75*
G03X294556Y151566I223J13D01*
G01X293693Y151515D02*
G03X294120Y151620I204J92D01*
G01X294881Y164052D02*
G03X293639Y158239I9366J-5042D01*
X291568Y163811I-10608J-772*
G01X293760Y163265D02*
G03X293639Y158239I25844J-3138D01*
X292792Y163195I-25966J-1888*
G01X294370Y147370D02*
X294120Y151620D01*
X293120Y165370*
X248237Y150168D02*
G03X251560Y161019I-16980J11133D01*
X254579Y150079I20303J-282*
G01X249709Y151228D02*
G03X251560Y161019I-27109J10193D01*
G01X250876Y151541D02*
G03X251560Y161019I-81071J10613D01*
X251980Y151526I81755J-1136*
G01X251560Y161019D02*
G03X253137Y151180I28959J-402D01*
G01X251370Y147370D02*
X251606Y164367D01*
X376674Y151512D02*
G03X378120Y152120I535J752D01*
X379308Y151096I911J-144*
G01X377692Y151558D02*
G03X378120Y152120I-308J678D01*
X378354Y151453I737J-116*
G01X377043Y165301D02*
G03X376593Y159373I9958J-3736D01*
X373792Y164616I-10408J-2191*
G01X376037Y164370D02*
G03X376593Y159373I26032J367D01*
X375087Y164170I-25475J-5363*
G01X377370Y147370D02*
X378120Y152120D01*
X375120Y166370*
X331235Y150165D02*
G03X334550Y161019I-16989J11121D01*
X337577Y150082I20303J-267*
G01X332707Y151227D02*
G03X334550Y161019I-27117J10173D01*
G01X333873Y151541D02*
G03X334550Y161019I-81079J10554D01*
X334977Y151526I81755J-1076*
G01X334550Y161019D02*
G03X336134Y151182I28959J-381D01*
G01X334370Y147370D02*
X334607Y165380D01*
X419235Y150165D02*
G03X422550Y161019I-16989J11121D01*
X425577Y150082I20303J-267*
G01X420707Y151227D02*
G03X422550Y161019I-27117J10173D01*
G01X421873Y151541D02*
G03X422550Y161019I-81079J10554D01*
X422977Y151526I81755J-1076*
G01X422550Y161019D02*
G03X424134Y151182I28959J-381D01*
G01X422370Y147370D02*
X422607Y165380D01*
X506235Y150165D02*
G03X509550Y161019I-16989J11121D01*
X512577Y150082I20303J-267*
G01X507707Y151227D02*
G03X509550Y161019I-27117J10173D01*
G01X508873Y151541D02*
G03X509550Y161019I-81079J10554D01*
X509977Y151526I81755J-1076*
G01X509550Y161019D02*
G03X511134Y151182I28959J-381D01*
G01X509526Y159221D02*
G03X507940Y164950I-10635J140D01*
G01X511262Y164906D02*
G03X509526Y159221I8899J-5825D01*
X509106Y164231I-26032J342*
G01X510077Y164218D02*
G03X509526Y159221I25481J-5340D01*
G01X509370Y147370D02*
X509620Y166370D01*
X251606Y164367D02*
X251620Y165370D01*
X239315Y202507D02*
G03X241851Y197889I9203J2048D01*
X237233Y200425I-6666J-6666*
G01X239019Y201329D02*
G03X241851Y197889I19149J12877D01*
X238411Y200721I-16317J-16317*
G01X251606Y164367D02*
Y188134D01*
X237370Y202370*
X266563Y167031D02*
G03X272270Y165370I5707J8975D01*
X266563Y163709I0J-10636*
G01X267266Y165856D02*
G03X272270Y165370I5004J25548D01*
X267266Y164885I0J-26034*
G01X272470Y165370D02*
G03X278178Y167031I0J10636D01*
G01Y163709D02*
G03X272470Y165370I-5708J-8975D01*
X277474Y165856I0J26034*
G01Y164885D02*
G03X272470Y165370I-5004J-25549D01*
G01X265120D02*
X279620D01*
X334607Y165380D02*
X334620Y166370D01*
X321815Y203757D02*
G03X324351Y199139I9203J2048D01*
X319733Y201675I-6666J-6666*
G01X321519Y202579D02*
G03X324351Y199139I19149J12877D01*
X320911Y201971I-16317J-16317*
G01X334607Y165380D02*
Y188883D01*
X319870Y203620*
X349563Y168031D02*
G03X355270Y166370I5707J8975D01*
X349563Y164709I0J-10636*
G01X350266Y166856D02*
G03X355270Y166370I5004J25548D01*
X350266Y165885I0J-26034*
G01X354470Y166370D02*
G03X360178Y168031I0J10636D01*
G01Y164709D02*
G03X354470Y166370I-5708J-8975D01*
X359474Y166856I0J26034*
G01Y165885D02*
G03X354470Y166370I-5004J-25549D01*
G01X348120D02*
X361620D01*
X422607Y165380D02*
X422620Y166370D01*
X411815Y206257D02*
G03X414351Y201639I9203J2048D01*
X409733Y204175I-6666J-6666*
G01X411519Y205079D02*
G03X414351Y201639I19149J12877D01*
X410911Y204471I-16317J-16317*
G01X422607Y165380D02*
Y193383D01*
X409870Y206120*
X437563Y168031D02*
G03X443270Y166370I5707J8975D01*
X437563Y164709I0J-10636*
G01X438266Y166856D02*
G03X443270Y166370I5004J25548D01*
X438266Y165885I0J-26034*
G01X442470Y166370D02*
G03X448178Y168031I0J10636D01*
G01Y164709D02*
G03X442470Y166370I-5708J-8975D01*
X447474Y166856I0J26034*
G01Y165885D02*
G03X442470Y166370I-5004J-25549D01*
G01X436120D02*
X449620D01*
X509370Y173516D02*
G03X510974Y168104I9932J-0D01*
G01X507504Y166973D02*
G03X509370Y173516I-10538J6543D01*
X509865Y168556I25072J-0*
G01X508894Y168447D02*
G03X509370Y173516I-26741J5069D01*
G01X498065Y206257D02*
G03X500601Y201639I9203J2048D01*
X495983Y204175I-6666J-6666*
G01X497769Y205079D02*
G03X500601Y201639I19149J12877D01*
X497161Y204471I-16317J-16317*
G01X509620Y166370D02*
X509370Y166620D01*
Y192870*
X496120Y206120*
X524563Y168031D02*
G03X530270Y166370I5707J8975D01*
X524563Y164709I0J-10636*
G01X525266Y166856D02*
G03X530270Y166370I5004J25548D01*
X525266Y165885I0J-26034*
G01X528470Y166370D02*
G03X534178Y168031I0J10636D01*
G01Y164709D02*
G03X528470Y166370I-5708J-8975D01*
X533474Y166856I0J26034*
G01Y165885D02*
G03X528470Y166370I-5004J-25549D01*
G01X523120D02*
X535620D01*
X232726Y287211D02*
G03X236514Y290873I-4397J8339D01*
X235283Y285750I8186J-4678*
G01X233940Y287235D02*
G03X236514Y290873I-17461J15086D01*
X234687Y286808I20036J-11449*
G01X564220Y301370D02*
G03X569928Y303031I0J10636D01*
G01Y299709D02*
G03X564220Y301370I-5708J-8975D01*
X569224Y301856I0J26034*
G01Y300885D02*
G03X564220Y301370I-5004J-25549D01*
G01X233370Y285370D02*
X237370Y292370D01*
X537370*
X546370Y301370*
X571370*
X320649Y289842D02*
G03X325708Y288370I5059J7955D01*
X320649Y286898I-0J-9427*
G01X321272Y288800D02*
G03X325708Y288370I4436J22646D01*
X321272Y287940I-0J-23075*
G01X564220Y291370D02*
G03X569928Y293031I0J10636D01*
G01Y289709D02*
G03X564220Y291370I-5708J-8975D01*
X569224Y291856I0J26034*
G01Y290885D02*
G03X564220Y291370I-5004J-25549D01*
G01X319370Y288370D02*
X541370D01*
X544370Y291370*
X571370*
X512649Y268842D02*
G03X517708Y267370I5059J7955D01*
X512649Y265898I-0J-9427*
G01X513272Y267800D02*
G03X517708Y267370I4436J22646D01*
X513272Y266940I-0J-23075*
G01X564220Y271370D02*
G03X569928Y273031I0J10636D01*
G01Y269709D02*
G03X564220Y271370I-5708J-8975D01*
X569224Y271856I0J26034*
G01Y270885D02*
G03X564220Y271370I-5004J-25549D01*
G01X511370Y267370D02*
X539370D01*
X543370Y271370*
X571370*
X564220Y281370D02*
G03X569928Y283031I0J10636D01*
G01Y279709D02*
G03X564220Y281370I-5708J-8975D01*
X569224Y281856I0J26034*
G01Y280885D02*
G03X564220Y281370I-5004J-25549D01*
G01X411649Y285842D02*
G03X416708Y284370I5059J7955D01*
X411649Y282898I-0J-9427*
G01X412272Y284800D02*
G03X416708Y284370I4436J22646D01*
X412272Y283940I-0J-23075*
G01X571370Y281370D02*
X544370D01*
X541370Y284370*
X410370*
X281649Y353342D02*
G03X286708Y351870I5059J7955D01*
X281649Y350398I-0J-9427*
G01X282272Y352300D02*
G03X286708Y351870I4436J22646D01*
X282272Y351440I-0J-23075*
G01X564870Y364370D02*
G03X569886Y365994I0J8558D01*
G01Y362746D02*
G03X564870Y364370I-5016J-6934D01*
X569221Y364840I0J20394*
G01Y363901D02*
G03X564870Y364370I-4351J-19925D01*
G01X280370Y351870D02*
X552370D01*
X564870Y364370*
X571370*
X449649Y357842D02*
G03X454708Y356370I5059J7955D01*
X449649Y354898I-0J-9427*
G01X450272Y356800D02*
G03X454708Y356370I4436J22646D01*
X450272Y355940I-0J-23075*
G01X564220Y374370D02*
G03X569928Y376031I0J10636D01*
G01Y372709D02*
G03X564220Y374370I-5708J-8975D01*
X569224Y374856I0J26034*
G01Y373885D02*
G03X564220Y374370I-5004J-25549D01*
G01X448370Y356370D02*
X545870D01*
X563370Y374370*
X571370*
G54D23*
X237370Y202370D03*
X319870Y203620D03*
X409870Y206120D03*
X496120D03*
X233370Y285370D03*
X319370Y288370D03*
X410370Y284370D03*
X511370Y267370D03*
X280370Y351870D03*
X448370Y356370D03*
G54D24*
X536870Y131370D02*
Y154370D01*
G03X536370Y154870I-500J0*
G01X525370*
G03X524870Y154370I0J-500*
G01Y138870*
X494870*
Y175370*
G03X494370Y175870I-500J0*
G01X459370*
G03X458870Y175370I0J-500*
G01Y131370*
G03X459370Y130870I500J0*
G01X536370*
G03X536870Y131370I0J500*
G01X361870D02*
Y153370D01*
G03X361370Y153870I-500J0*
G01X350370*
G03X349870Y153370I0J-500*
G01Y137870*
X320870*
Y174370*
G03X320370Y174870I-500J0*
G01X289370*
G03X288870Y174370I0J-500*
G01Y131370*
G03X289370Y130870I500J0*
G01X361370*
G03X361870Y131370I0J500*
G01X586870Y152370D02*
Y166370D01*
G03X586370Y166870I-500J0*
G01X565870*
Y175370*
G03X565370Y175870I-500J0*
G01X545370*
G03X544870Y175370I0J-500*
G01Y120870*
X402870*
Y175370*
G03X402370Y175870I-500J0*
G01X372370*
G03X371870Y175370I0J-500*
G01Y120870*
X235870*
Y164370*
G03X235370Y164870I-500J0*
G01X210370*
G03X209870Y164370I0J-500*
G01Y112370*
G03X210370Y111870I500J0*
G01X283870*
Y56370*
G03X284370Y55870I500J0*
G01X398370*
G03X398870Y56370I0J500*
G01Y111870*
X441870*
Y56370*
G03X442370Y55870I500J0*
G01X570370*
G03X570870Y56370I0J500*
G01Y151870*
X586370*
G03X586870Y152370I0J500*
G01X524870Y154269D02*
X536870D01*
X524870Y153369D02*
X536870D01*
X524870Y152469D02*
X536870D01*
X524870Y151569D02*
X536870D01*
X524870Y150669D02*
X536870D01*
X524870Y149769D02*
X536870D01*
X524870Y148869D02*
X536870D01*
X524870Y147969D02*
X536870D01*
X524870Y147069D02*
X536870D01*
X524870Y146169D02*
X536870D01*
X524870Y145269D02*
X536870D01*
X524870Y144369D02*
X536870D01*
X524870Y143469D02*
X536870D01*
X524870Y142569D02*
X536870D01*
X524870Y141669D02*
X536870D01*
X524870Y140769D02*
X536870D01*
X524870Y139869D02*
X536870D01*
X524870Y138969D02*
X536870D01*
X458870Y138069D02*
X536870D01*
X458870Y137169D02*
X536870D01*
X458870Y136269D02*
X536870D01*
X458870Y135369D02*
X536870D01*
X458870Y134469D02*
X536870D01*
X458870Y133569D02*
X536870D01*
X458870Y132669D02*
X536870D01*
X458870Y131769D02*
X536870D01*
X458870Y174969D02*
X494870D01*
X458870Y174069D02*
X494870D01*
X458870Y173169D02*
X494870D01*
X458870Y172269D02*
X494870D01*
X458870Y171369D02*
X494870D01*
X458870Y170469D02*
X494870D01*
X458870Y169569D02*
X494870D01*
X458870Y168669D02*
X494870D01*
X458870Y167769D02*
X494870D01*
X458870Y166869D02*
X494870D01*
X458870Y165969D02*
X494870D01*
X458870Y165069D02*
X494870D01*
X458870Y164169D02*
X494870D01*
X458870Y163269D02*
X494870D01*
X458870Y162369D02*
X494870D01*
X458870Y161469D02*
X494870D01*
X458870Y160569D02*
X494870D01*
X458870Y159669D02*
X494870D01*
X458870Y158769D02*
X494870D01*
X458870Y157869D02*
X494870D01*
X458870Y156969D02*
X494870D01*
X458870Y156069D02*
X494870D01*
X458870Y155169D02*
X494870D01*
X458870Y154269D02*
X494870D01*
X458870Y153369D02*
X494870D01*
X458870Y152469D02*
X494870D01*
X458870Y151569D02*
X494870D01*
X458870Y150669D02*
X494870D01*
X458870Y149769D02*
X494870D01*
X458870Y148869D02*
X494870D01*
X458870Y147969D02*
X494870D01*
X458870Y147069D02*
X494870D01*
X458870Y146169D02*
X494870D01*
X458870Y145269D02*
X494870D01*
X458870Y144369D02*
X494870D01*
X458870Y143469D02*
X494870D01*
X458870Y142569D02*
X494870D01*
X458870Y141669D02*
X494870D01*
X458870Y140769D02*
X494870D01*
X458870Y139869D02*
X494870D01*
X458870Y138969D02*
X494870D01*
X459334Y175869D02*
X494406D01*
X349870Y153369D02*
X361870D01*
X349870Y152469D02*
X361870D01*
X349870Y151569D02*
X361870D01*
X349870Y150669D02*
X361870D01*
X349870Y149769D02*
X361870D01*
X349870Y148869D02*
X361870D01*
X349870Y147969D02*
X361870D01*
X349870Y147069D02*
X361870D01*
X349870Y146169D02*
X361870D01*
X349870Y145269D02*
X361870D01*
X349870Y144369D02*
X361870D01*
X349870Y143469D02*
X361870D01*
X349870Y142569D02*
X361870D01*
X349870Y141669D02*
X361870D01*
X349870Y140769D02*
X361870D01*
X349870Y139869D02*
X361870D01*
X349870Y138969D02*
X361870D01*
X349870Y138069D02*
X361870D01*
X288870Y137169D02*
X361870D01*
X288870Y136269D02*
X361870D01*
X288870Y135369D02*
X361870D01*
X288870Y134469D02*
X361870D01*
X288870Y133569D02*
X361870D01*
X288870Y132669D02*
X361870D01*
X288870Y131769D02*
X361870D01*
X288870Y174069D02*
X320870D01*
X288870Y173169D02*
X320870D01*
X288870Y172269D02*
X320870D01*
X288870Y171369D02*
X320870D01*
X288870Y170469D02*
X320870D01*
X288870Y169569D02*
X320870D01*
X288870Y168669D02*
X320870D01*
X288870Y167769D02*
X320870D01*
X288870Y166869D02*
X320870D01*
X288870Y165969D02*
X320870D01*
X288870Y165069D02*
X320870D01*
X288870Y164169D02*
X320870D01*
X288870Y163269D02*
X320870D01*
X288870Y162369D02*
X320870D01*
X288870Y161469D02*
X320870D01*
X288870Y160569D02*
X320870D01*
X288870Y159669D02*
X320870D01*
X288870Y158769D02*
X320870D01*
X288870Y157869D02*
X320870D01*
X288870Y156969D02*
X320870D01*
X288870Y156069D02*
X320870D01*
X288870Y155169D02*
X320870D01*
X288870Y154269D02*
X320870D01*
X288870Y153369D02*
X320870D01*
X288870Y152469D02*
X320870D01*
X288870Y151569D02*
X320870D01*
X288870Y150669D02*
X320870D01*
X288870Y149769D02*
X320870D01*
X288870Y148869D02*
X320870D01*
X288870Y147969D02*
X320870D01*
X288870Y147069D02*
X320870D01*
X288870Y146169D02*
X320870D01*
X288870Y145269D02*
X320870D01*
X288870Y144369D02*
X320870D01*
X288870Y143469D02*
X320870D01*
X288870Y142569D02*
X320870D01*
X288870Y141669D02*
X320870D01*
X288870Y140769D02*
X320870D01*
X288870Y139869D02*
X320870D01*
X288870Y138969D02*
X320870D01*
X288870Y138069D02*
X320870D01*
X544870Y165669D02*
X586870D01*
X544870Y164769D02*
X586870D01*
X544870Y163869D02*
X586870D01*
X544870Y162969D02*
X586870D01*
X544870Y162069D02*
X586870D01*
X544870Y161169D02*
X586870D01*
X544870Y160269D02*
X586870D01*
X544870Y159369D02*
X586870D01*
X544870Y158469D02*
X586870D01*
X544870Y157569D02*
X586870D01*
X544870Y156669D02*
X586870D01*
X544870Y155769D02*
X586870D01*
X544870Y154869D02*
X586870D01*
X544870Y153969D02*
X586870D01*
X544870Y153069D02*
X586870D01*
X544870Y166569D02*
X586829D01*
X544870Y152169D02*
X586828D01*
X544870Y151269D02*
X570870D01*
X544870Y150369D02*
X570870D01*
X544870Y149469D02*
X570870D01*
X544870Y148569D02*
X570870D01*
X544870Y147669D02*
X570870D01*
X544870Y146769D02*
X570870D01*
X544870Y145869D02*
X570870D01*
X544870Y144969D02*
X570870D01*
X544870Y144069D02*
X570870D01*
X544870Y143169D02*
X570870D01*
X544870Y142269D02*
X570870D01*
X544870Y141369D02*
X570870D01*
X544870Y140469D02*
X570870D01*
X544870Y139569D02*
X570870D01*
X544870Y138669D02*
X570870D01*
X544870Y137769D02*
X570870D01*
X544870Y136869D02*
X570870D01*
X544870Y135969D02*
X570870D01*
X544870Y135069D02*
X570870D01*
X544870Y134169D02*
X570870D01*
X544870Y133269D02*
X570870D01*
X544870Y132369D02*
X570870D01*
X544870Y131469D02*
X570870D01*
X544870Y130569D02*
X570870D01*
X544870Y129669D02*
X570870D01*
X544870Y128769D02*
X570870D01*
X544870Y127869D02*
X570870D01*
X544870Y126969D02*
X570870D01*
X544870Y126069D02*
X570870D01*
X544870Y125169D02*
X570870D01*
X544870Y124269D02*
X570870D01*
X544870Y123369D02*
X570870D01*
X544870Y122469D02*
X570870D01*
X544870Y121569D02*
X570870D01*
X209870Y120669D02*
X570870D01*
X209870Y119769D02*
X570870D01*
X209870Y118869D02*
X570870D01*
X209870Y117969D02*
X570870D01*
X209870Y117069D02*
X570870D01*
X209870Y116169D02*
X570870D01*
X209870Y115269D02*
X570870D01*
X209870Y114369D02*
X570870D01*
X209870Y113469D02*
X570870D01*
X209870Y112569D02*
X570870D01*
X441870Y111669D02*
X570870D01*
X441870Y110769D02*
X570870D01*
X441870Y109869D02*
X570870D01*
X441870Y108969D02*
X570870D01*
X441870Y108069D02*
X570870D01*
X441870Y107169D02*
X570870D01*
X441870Y106269D02*
X570870D01*
X441870Y105369D02*
X570870D01*
X441870Y104469D02*
X570870D01*
X441870Y103569D02*
X570870D01*
X441870Y102669D02*
X570870D01*
X441870Y101769D02*
X570870D01*
X441870Y100869D02*
X570870D01*
X441870Y99969D02*
X570870D01*
X441870Y99069D02*
X570870D01*
X441870Y98169D02*
X570870D01*
X441870Y97269D02*
X570870D01*
X441870Y96369D02*
X570870D01*
X441870Y95469D02*
X570870D01*
X441870Y94569D02*
X570870D01*
X441870Y93669D02*
X570870D01*
X441870Y92769D02*
X570870D01*
X441870Y91869D02*
X570870D01*
X441870Y90969D02*
X570870D01*
X441870Y90069D02*
X570870D01*
X441870Y89169D02*
X570870D01*
X441870Y88269D02*
X570870D01*
X441870Y87369D02*
X570870D01*
X441870Y86469D02*
X570870D01*
X441870Y85569D02*
X570870D01*
X441870Y84669D02*
X570870D01*
X441870Y83769D02*
X570870D01*
X441870Y82869D02*
X570870D01*
X441870Y81969D02*
X570870D01*
X441870Y81069D02*
X570870D01*
X441870Y80169D02*
X570870D01*
X441870Y79269D02*
X570870D01*
X441870Y78369D02*
X570870D01*
X441870Y77469D02*
X570870D01*
X441870Y76569D02*
X570870D01*
X441870Y75669D02*
X570870D01*
X441870Y74769D02*
X570870D01*
X441870Y73869D02*
X570870D01*
X441870Y72969D02*
X570870D01*
X441870Y72069D02*
X570870D01*
X441870Y71169D02*
X570870D01*
X441870Y70269D02*
X570870D01*
X441870Y69369D02*
X570870D01*
X441870Y68469D02*
X570870D01*
X441870Y67569D02*
X570870D01*
X441870Y66669D02*
X570870D01*
X441870Y65769D02*
X570870D01*
X441870Y64869D02*
X570870D01*
X441870Y63969D02*
X570870D01*
X441870Y63069D02*
X570870D01*
X441870Y62169D02*
X570870D01*
X441870Y61269D02*
X570870D01*
X441870Y60369D02*
X570870D01*
X441870Y59469D02*
X570870D01*
X441870Y58569D02*
X570870D01*
X441870Y57669D02*
X570870D01*
X441870Y56769D02*
X570870D01*
X544870Y174669D02*
X565870D01*
X544870Y173769D02*
X565870D01*
X544870Y172869D02*
X565870D01*
X544870Y171969D02*
X565870D01*
X544870Y171069D02*
X565870D01*
X544870Y170169D02*
X565870D01*
X544870Y169269D02*
X565870D01*
X544870Y168369D02*
X565870D01*
X544870Y167469D02*
X565870D01*
X544911Y175569D02*
X565829D01*
X371870Y174669D02*
X402870D01*
X371870Y173769D02*
X402870D01*
X371870Y172869D02*
X402870D01*
X371870Y171969D02*
X402870D01*
X371870Y171069D02*
X402870D01*
X371870Y170169D02*
X402870D01*
X371870Y169269D02*
X402870D01*
X371870Y168369D02*
X402870D01*
X371870Y167469D02*
X402870D01*
X371870Y166569D02*
X402870D01*
X371870Y165669D02*
X402870D01*
X371870Y164769D02*
X402870D01*
X371870Y163869D02*
X402870D01*
X371870Y162969D02*
X402870D01*
X371870Y162069D02*
X402870D01*
X371870Y161169D02*
X402870D01*
X371870Y160269D02*
X402870D01*
X371870Y159369D02*
X402870D01*
X371870Y158469D02*
X402870D01*
X371870Y157569D02*
X402870D01*
X371870Y156669D02*
X402870D01*
X371870Y155769D02*
X402870D01*
X371870Y154869D02*
X402870D01*
X371870Y153969D02*
X402870D01*
X371870Y153069D02*
X402870D01*
X371870Y152169D02*
X402870D01*
X371870Y151269D02*
X402870D01*
X371870Y150369D02*
X402870D01*
X371870Y149469D02*
X402870D01*
X371870Y148569D02*
X402870D01*
X371870Y147669D02*
X402870D01*
X371870Y146769D02*
X402870D01*
X371870Y145869D02*
X402870D01*
X371870Y144969D02*
X402870D01*
X371870Y144069D02*
X402870D01*
X371870Y143169D02*
X402870D01*
X371870Y142269D02*
X402870D01*
X371870Y141369D02*
X402870D01*
X371870Y140469D02*
X402870D01*
X371870Y139569D02*
X402870D01*
X371870Y138669D02*
X402870D01*
X371870Y137769D02*
X402870D01*
X371870Y136869D02*
X402870D01*
X371870Y135969D02*
X402870D01*
X371870Y135069D02*
X402870D01*
X371870Y134169D02*
X402870D01*
X371870Y133269D02*
X402870D01*
X371870Y132369D02*
X402870D01*
X371870Y131469D02*
X402870D01*
X371870Y130569D02*
X402870D01*
X371870Y129669D02*
X402870D01*
X371870Y128769D02*
X402870D01*
X371870Y127869D02*
X402870D01*
X371870Y126969D02*
X402870D01*
X371870Y126069D02*
X402870D01*
X371870Y125169D02*
X402870D01*
X371870Y124269D02*
X402870D01*
X371870Y123369D02*
X402870D01*
X371870Y122469D02*
X402870D01*
X371870Y121569D02*
X402870D01*
X371911Y175569D02*
X402829D01*
X283870Y111669D02*
X398870D01*
X283870Y110769D02*
X398870D01*
X283870Y109869D02*
X398870D01*
X283870Y108969D02*
X398870D01*
X283870Y108069D02*
X398870D01*
X283870Y107169D02*
X398870D01*
X283870Y106269D02*
X398870D01*
X283870Y105369D02*
X398870D01*
X283870Y104469D02*
X398870D01*
X283870Y103569D02*
X398870D01*
X283870Y102669D02*
X398870D01*
X283870Y101769D02*
X398870D01*
X283870Y100869D02*
X398870D01*
X283870Y99969D02*
X398870D01*
X283870Y99069D02*
X398870D01*
X283870Y98169D02*
X398870D01*
X283870Y97269D02*
X398870D01*
X283870Y96369D02*
X398870D01*
X283870Y95469D02*
X398870D01*
X283870Y94569D02*
X398870D01*
X283870Y93669D02*
X398870D01*
X283870Y92769D02*
X398870D01*
X283870Y91869D02*
X398870D01*
X283870Y90969D02*
X398870D01*
X283870Y90069D02*
X398870D01*
X283870Y89169D02*
X398870D01*
X283870Y88269D02*
X398870D01*
X283870Y87369D02*
X398870D01*
X283870Y86469D02*
X398870D01*
X283870Y85569D02*
X398870D01*
X283870Y84669D02*
X398870D01*
X283870Y83769D02*
X398870D01*
X283870Y82869D02*
X398870D01*
X283870Y81969D02*
X398870D01*
X283870Y81069D02*
X398870D01*
X283870Y80169D02*
X398870D01*
X283870Y79269D02*
X398870D01*
X283870Y78369D02*
X398870D01*
X283870Y77469D02*
X398870D01*
X283870Y76569D02*
X398870D01*
X283870Y75669D02*
X398870D01*
X283870Y74769D02*
X398870D01*
X283870Y73869D02*
X398870D01*
X283870Y72969D02*
X398870D01*
X283870Y72069D02*
X398870D01*
X283870Y71169D02*
X398870D01*
X283870Y70269D02*
X398870D01*
X283870Y69369D02*
X398870D01*
X283870Y68469D02*
X398870D01*
X283870Y67569D02*
X398870D01*
X283870Y66669D02*
X398870D01*
X283870Y65769D02*
X398870D01*
X283870Y64869D02*
X398870D01*
X283870Y63969D02*
X398870D01*
X283870Y63069D02*
X398870D01*
X283870Y62169D02*
X398870D01*
X283870Y61269D02*
X398870D01*
X283870Y60369D02*
X398870D01*
X283870Y59469D02*
X398870D01*
X283870Y58569D02*
X398870D01*
X283870Y57669D02*
X398870D01*
X283870Y56769D02*
X398870D01*
X209870Y163869D02*
X235870D01*
X209870Y162969D02*
X235870D01*
X209870Y162069D02*
X235870D01*
X209870Y161169D02*
X235870D01*
X209870Y160269D02*
X235870D01*
X209870Y159369D02*
X235870D01*
X209870Y158469D02*
X235870D01*
X209870Y157569D02*
X235870D01*
X209870Y156669D02*
X235870D01*
X209870Y155769D02*
X235870D01*
X209870Y154869D02*
X235870D01*
X209870Y153969D02*
X235870D01*
X209870Y153069D02*
X235870D01*
X209870Y152169D02*
X235870D01*
X209870Y151269D02*
X235870D01*
X209870Y150369D02*
X235870D01*
X209870Y149469D02*
X235870D01*
X209870Y148569D02*
X235870D01*
X209870Y147669D02*
X235870D01*
X209870Y146769D02*
X235870D01*
X209870Y145869D02*
X235870D01*
X209870Y144969D02*
X235870D01*
X209870Y144069D02*
X235870D01*
X209870Y143169D02*
X235870D01*
X209870Y142269D02*
X235870D01*
X209870Y141369D02*
X235870D01*
X209870Y140469D02*
X235870D01*
X209870Y139569D02*
X235870D01*
X209870Y138669D02*
X235870D01*
X209870Y137769D02*
X235870D01*
X209870Y136869D02*
X235870D01*
X209870Y135969D02*
X235870D01*
X209870Y135069D02*
X235870D01*
X209870Y134169D02*
X235870D01*
X209870Y133269D02*
X235870D01*
X209870Y132369D02*
X235870D01*
X209870Y131469D02*
X235870D01*
X209870Y130569D02*
X235870D01*
X209870Y129669D02*
X235870D01*
X209870Y128769D02*
X235870D01*
X209870Y127869D02*
X235870D01*
X209870Y126969D02*
X235870D01*
X209870Y126069D02*
X235870D01*
X209870Y125169D02*
X235870D01*
X209870Y124269D02*
X235870D01*
X209870Y123369D02*
X235870D01*
X209870Y122469D02*
X235870D01*
X209870Y121569D02*
X235870D01*
X210068Y164769D02*
X235672D01*
G74*
X0Y0D02*
M02*
