%
T1C.02F197S550
X023637Y033137
X024637Y033137
X025637Y033137
X026637Y033137
X031937Y033137
X032937Y033137
X033937Y033137
X034937Y033137
X041337Y033137
X042337Y033137
X043337Y033137
X044337Y033137
X049837Y033137
X050837Y033137
X051837Y033137
X052837Y033137
T2C.035F197S550
X025137Y014737
X024237Y022937
X025237Y022937
X026237Y022937
X026237Y025937
X025237Y025937
X024237Y025937
X022737Y030237
X024737Y030237
X023737Y031237
X032437Y036437
X034437Y036437
X032237Y031237
X031237Y030237
X033237Y030237
X027237Y025937
X034437Y025937
X033437Y025937
X032437Y025937
X027237Y022937
X032437Y022937
X033437Y022937
X034437Y022937
X029437Y014737
X027287Y014737
X033437Y014737
X035587Y014737
X037737Y014737
X035437Y022937
X041437Y022937
X041437Y025937
X035437Y025937
X040137Y030237
X041137Y031237
X038337Y036437
X036337Y036437
X042137Y030237
X044437Y025937
X043437Y025937
X042437Y025937
X042437Y022937
X043437Y022937
X044437Y022937
X042237Y014737
X044387Y014737
X046537Y014737
X050937Y014737
X050137Y022937
X051137Y022937
X051137Y025937
X050137Y025937
X050737Y030237
X048737Y030237
X049737Y031237
X048937Y036437
X050937Y036437
X052637Y036437
X054637Y036437
X053137Y025937
X052137Y025937
X052137Y022937
X053137Y022937
X053087Y014737
X055237Y014737
T3C.03543F197S550
X026837Y040188
X035837Y040188
X037806Y040188
X042937Y040188
X051937Y040188
X053906Y040188
T4C.037F197S550
X023737Y020237
X031987Y020362
X023337Y028537
X031937Y028837
X028037Y035187
X044837Y035637
X041037Y028437
X040987Y020612
X049612Y020612
X051137Y026737
X057137Y027137
X058137Y027137
X058137Y028137
X057137Y028137
X058137Y029137
X057137Y029137
X057137Y030137
X058137Y030137
X057137Y034437
X058137Y034437
X057137Y035437
X058137Y035437
X057137Y036437
X058137Y036437
X057137Y037437
X058137Y037437
T5C.04724F139S550
X024337Y006137
X039101Y006137
X024337Y010153
X039101Y010153
X041437Y010153
X056201Y010153
X056201Y006137
X041437Y006137
T6C.05118F107S550
X022437Y036337
X022437Y037715
X022437Y039093
T7C.06F089S550
X022237Y015737
X022237Y017737
X058037Y017837
X058037Y015837
T8C.08F074S550
X031437Y014337
X031437Y016337
X048737Y016237
X048737Y014237
X058537Y013237
X058537Y011237
T9C.1378F035S794
X022137Y005237
X027237Y021737
X022337Y041537
X035487Y021737
X044387Y021737
X053087Y021737
X058437Y005237
X058237Y041537
M30
