*
*
G04 PADS 9.5 Build Number: 522968 generated Gerber (RS-274-X) file*
G04 PC Version=2.1*
*
%IN "default2.pcb"*%
*
%MOIN*%
*
%FSLAX35Y35*%
*
*
*
*
G04 PC Standard Apertures*
*
*
G04 Thermal Relief Aperture macro.*
%AMTER*
1,1,$1,0,0*
1,0,$1-$2,0,0*
21,0,$3,$4,0,0,45*
21,0,$3,$4,0,0,135*
%
*
*
G04 Annular Aperture macro.*
%AMANN*
1,1,$1,0,0*
1,0,$2,0,0*
%
*
*
G04 Odd Aperture macro.*
%AMODD*
1,1,$1,0,0*
1,0,$1-0.005,0,0*
%
*
*
G04 PC Custom Aperture Macros*
*
*
*
*
*
*
G04 PC Aperture Table*
*
%ADD010C,0.001*%
%ADD011C,0.06*%
%ADD012C,0.07874*%
%ADD013R,0.1X0.1*%
%ADD014C,0.1*%
%ADD015C,0.04*%
%ADD016C,0.11811*%
%ADD017R,0.06X0.06*%
%ADD018C,0.1378*%
%ADD019C,0.09843*%
%ADD020C,0.12*%
%ADD023C,0.055*%
%ADD024C,0.01*%
*
*
*
*
G04 PC Circuitry*
G04 Layer Name default2.pcb - circuitry*
%LPD*%
*
*
G04 PC Custom Flashes*
G04 Layer Name default2.pcb - flashes*
%LPD*%
*
*
G04 PC Circuitry*
G04 Layer Name default2.pcb - circuitry*
%LPD*%
*
G54D10*
G54D11*
G01X401370Y302370D03*
X411370Y312370D03*
X421370Y302370D03*
X487370D03*
X497370Y312370D03*
X507370Y302370D03*
X227370D03*
X237370Y312370D03*
X247370Y302370D03*
X312370D03*
X322370Y312370D03*
X332370Y302370D03*
X489370Y364370D03*
X509370D03*
X526370D03*
X546370D03*
X363370D03*
X383370D03*
X324370D03*
X344370D03*
X581370Y301370D03*
X571370Y291370D03*
X581370D03*
X571370Y281370D03*
X581370D03*
X571370Y271370D03*
X581370D03*
X262370Y259370D03*
X252370D03*
X242370D03*
Y229370D03*
X252370D03*
X262370D03*
X272370D03*
X344370Y259370D03*
X334370D03*
X324370D03*
Y229370D03*
X334370D03*
X344370D03*
X354370D03*
X434370Y259370D03*
X424370D03*
X414370D03*
Y229370D03*
X424370D03*
X434370D03*
X444370D03*
X521370Y259370D03*
X511370D03*
X501370D03*
Y229370D03*
X511370D03*
X521370D03*
X531370D03*
X581370Y374370D03*
X571370Y364370D03*
X581370D03*
X571370Y354370D03*
X581370D03*
X571370Y344370D03*
X581370D03*
G54D12*
X224370Y363370D03*
Y377150D03*
Y390929D03*
G54D13*
X422370Y147370D03*
X509370D03*
X251370D03*
X334370D03*
G54D14*
X443870D03*
X465370D03*
X530870D03*
X552370D03*
X272870D03*
X294370D03*
X355870D03*
X377370D03*
G54D15*
X236370Y331370D03*
X246370D03*
X256370D03*
X266370D03*
X319370D03*
X329370D03*
X339370D03*
X349370D03*
X413370D03*
X423370D03*
X433370D03*
X443370D03*
X498370D03*
X508370D03*
X518370D03*
X528370D03*
G54D16*
X268370Y401882D03*
X358370D03*
X378055D03*
X429370D03*
X519370D03*
X539055D03*
G54D17*
X571370Y301370D03*
X258620Y287370D03*
X272120D03*
X340620D03*
X354120D03*
X430620D03*
X444120D03*
X518620D03*
X532120D03*
X490620Y275370D03*
X504120D03*
X402620D03*
X416120D03*
X311620D03*
X325120D03*
X226620D03*
X240120D03*
X363120Y132370D03*
X349620D03*
X237620Y218370D03*
X251120D03*
X319620D03*
X333120D03*
X539120Y132370D03*
X525620D03*
X452120D03*
X438620D03*
X279120D03*
X265620D03*
X423120Y218370D03*
X409620D03*
X510120Y217370D03*
X496620D03*
X430620Y275370D03*
X444120D03*
X272120D03*
X258620D03*
X354120D03*
X340620D03*
X280620Y363370D03*
X294120D03*
X253620D03*
X267120D03*
X443620D03*
X457120D03*
X415620D03*
X429120D03*
X518620Y275370D03*
X532120D03*
X272370Y259370D03*
X354370D03*
X444370D03*
X531370D03*
X571370Y374370D03*
G54D18*
X221370Y52370D03*
X443870Y217370D03*
X530870D03*
X354870D03*
X272370D03*
X584370Y52370D03*
X582370Y415370D03*
X223370D03*
G54D19*
X414370Y61370D03*
Y101528D03*
X562008Y61370D03*
Y101528D03*
X243370Y61370D03*
Y101528D03*
X391008Y61370D03*
Y101528D03*
G54D20*
X222370Y177370D03*
Y157370D03*
X580370Y178370D03*
Y158370D03*
X314370Y143370D03*
Y163370D03*
X585370Y112370D03*
Y132370D03*
X487370Y142370D03*
Y162370D03*
G54D23*
X237370Y202370D03*
X319870Y203620D03*
X409870Y206120D03*
X496120D03*
X233370Y285370D03*
X319370Y288370D03*
X410370Y284370D03*
X511370Y267370D03*
X280370Y351870D03*
X448370Y356370D03*
G54D24*
X205370Y39370D02*
X599071D01*
Y433071*
X205370*
Y39370*
X0Y0D02*
M02*
